<svg width="26" height="26" viewBox="0 0 26 26" fill="none" xmlns="http://www.w3.org/2000/svg">
<path d="M13 0C20.1797 0 26 5.8203 26 13C26 20.1797 20.1797 26 13 26C5.8203 26 0 20.1797 0 13C0 5.8203 5.8203 0 13 0ZM12 6C11.4477 6.00003 11 6.44774 11 7V13C11 13.3823 11.2151 13.7136 11.5303 13.8818C11.5758 13.9678 11.6346 14.0487 11.707 14.1211L14.9189 17.333C15.3095 17.7233 15.9425 17.7234 16.333 17.333C16.7235 16.9425 16.7234 16.3095 16.333 15.9189L13.1211 12.707C13.083 12.669 13.0423 12.6351 13 12.6045V7C13 6.44772 12.5523 6 12 6Z" fill="#ACF225"/>
</svg>
