<svg width="84" height="84" viewBox="0 0 84 84" fill="none" xmlns="http://www.w3.org/2000/svg">
<path d="M21 75.25V68.25H29.75V59.5H12.25C10.4541 59.5 8.72685 58.8097 7.42558 57.572C6.12431 56.3342 5.34855 54.6437 5.25875 52.85L5.25 52.5V17.5C5.25 15.7041 5.94026 13.9769 7.17802 12.6756C8.41577 11.3743 10.1063 10.5985 11.9 10.5088L12.25 10.5H71.75C73.5459 10.5 75.2731 11.1903 76.5744 12.428C77.8757 13.6658 78.6515 15.3563 78.7412 17.15L78.75 17.5V30.954H71.75V17.5H12.25V52.5H42.3377V59.5H36.75V68.25H63V75.25H21Z" fill="white"/>
<path d="M77 35.301L81.949 40.25L61.9745 60.2245C61.3552 60.8439 60.5261 61.2086 59.651 61.2465C58.7759 61.2844 57.9184 60.9928 57.2478 60.4293L57.0255 60.2245L45.801 49L50.75 44.051L59.5 52.7993L77 35.2993V35.301Z" fill="white"/>
</svg>
