<svg width="69" height="69" viewBox="0 0 69 69" fill="none" xmlns="http://www.w3.org/2000/svg">
<g clip-path="url(#clip0_26_849)">
<path d="M46.0383 29.1564C45.5846 29.1564 45.1354 29.0669 44.7163 28.893C44.2972 28.7192 43.9166 28.4643 43.5961 28.1432C43.2756 27.822 43.0217 27.4408 42.8487 27.0213C42.6758 26.6018 42.5873 26.1524 42.5883 25.6987C42.5883 23.5244 41.7251 21.439 40.1883 19.9008C38.6516 18.3626 36.567 17.4974 34.3927 17.4954C32.2183 17.4974 30.1338 18.3626 28.597 19.9008C27.0602 21.439 26.197 23.5244 26.197 25.6987C26.1962 26.304 26.0364 26.8985 25.7335 27.4226C25.4305 27.9467 24.9952 28.382 24.471 28.6848C23.9469 28.9877 23.3524 29.1474 22.747 29.1481C22.1417 29.1488 21.5468 28.9904 21.022 28.6887C20.4977 28.3851 20.0624 27.9491 19.7597 27.4244C19.4569 26.8996 19.2974 26.3045 19.297 25.6987C19.2955 23.715 19.6848 21.7504 20.4426 19.9171C21.2005 18.0839 22.3121 16.4179 23.7139 15.0143C25.1157 13.6107 26.7803 12.497 28.6126 11.7368C30.4449 10.9767 32.4089 10.5849 34.3927 10.5839C36.3761 10.5854 38.3397 10.9775 40.1716 11.7379C42.0034 12.4983 43.6676 13.6121 45.069 15.0157C46.4704 16.4192 47.5816 18.085 48.3392 19.918C49.0968 21.751 49.486 23.7153 49.4845 25.6987C49.4855 26.1524 49.397 26.6018 49.2241 27.0213C49.0512 27.4408 48.7972 27.822 48.4767 28.1432C48.1563 28.4643 47.7756 28.7192 47.3565 28.893C46.9375 29.0669 46.4882 29.1564 46.0345 29.1564H46.0383Z" fill="white"/>
<path d="M56.603 29.1563C56.1493 29.1563 55.7001 29.0668 55.281 28.893C54.8619 28.7191 54.4813 28.4643 54.1608 28.1431C53.8403 27.822 53.5864 27.4407 53.4134 27.0213C53.2405 26.6018 53.152 26.1524 53.153 25.6987C53.155 23.2332 52.6714 20.7915 51.7296 18.5129C50.7879 16.2344 49.4065 14.1637 47.6644 12.4191C45.9223 10.6745 43.8535 9.29019 41.5764 8.34519C39.2992 7.40018 36.8582 6.91301 34.3927 6.9115C31.9272 6.91301 29.4862 7.40018 27.209 8.34519C24.9318 9.29019 22.8631 10.6745 21.121 12.4191C19.3789 14.1637 17.9975 16.2344 17.0558 18.5129C16.114 20.7915 15.6303 23.2332 15.6324 25.6987C15.6324 26.6137 15.2689 27.4912 14.6219 28.1382C13.9749 28.7852 13.0974 29.1487 12.1824 29.1487C11.2674 29.1487 10.3898 28.7852 9.74284 28.1382C9.09584 27.4912 8.73236 26.6137 8.73236 25.6987C8.73236 11.5077 20.2209 0 34.3927 0C48.5607 0 60.0492 11.5077 60.0492 25.6987C60.0502 26.1524 59.9617 26.6018 59.7888 27.0213C59.6159 27.4407 59.3619 27.822 59.0414 28.1431C58.721 28.4643 58.3403 28.7191 57.9212 28.893C57.5022 29.0668 57.0529 29.1563 56.5992 29.1563H56.603Z" fill="white"/>
<path d="M64.6875 41.032H37.95V29.1564C37.95 28.7033 37.8608 28.2547 37.6874 27.8361C37.514 27.4175 37.2599 27.0372 36.9395 26.7168C36.6192 26.3965 36.2388 26.1424 35.8203 25.969C35.4017 25.7956 34.9531 25.7064 34.5 25.7064C34.0469 25.7064 33.5983 25.7956 33.1797 25.969C32.7612 26.1424 32.3808 26.3965 32.0605 26.7168C31.7401 27.0372 31.486 27.4175 31.3126 27.8361C31.1392 28.2547 31.05 28.7033 31.05 29.1564V41.032H4.3125C1.932 41.032 0 42.9717 0 45.3522V64.6799C0 67.0642 1.932 69 4.3125 69H64.6875C67.068 69 69 67.0642 69 64.6799V45.3522C68.999 44.208 68.5446 43.1109 67.7362 42.3012C66.9279 41.4915 65.8316 41.0351 64.6875 41.032ZM10.6375 58.4737C10.1844 58.4737 9.73582 58.3845 9.31724 58.2111C8.89867 58.0377 8.51834 57.7836 8.19798 57.4632C7.87762 57.1429 7.62349 56.7625 7.45012 56.344C7.27674 55.9254 7.1875 55.4768 7.1875 55.0237C7.1875 54.5706 7.27674 54.122 7.45012 53.7034C7.62349 53.2849 7.87762 52.9045 8.19798 52.5842C8.51834 52.2638 8.89867 52.0097 9.31724 51.8363C9.73582 51.6629 10.1844 51.5737 10.6375 51.5737C11.5525 51.5737 12.43 51.9372 13.077 52.5842C13.724 53.2312 14.0875 54.1087 14.0875 55.0237C14.0875 55.9387 13.724 56.8162 13.077 57.4632C12.43 58.1102 11.5525 58.4737 10.6375 58.4737ZM21.091 58.4737C20.4059 58.4762 19.7356 58.2746 19.1655 57.8947C18.5954 57.5148 18.1513 56.9738 17.8898 56.3406C17.6283 55.7074 17.5613 55.0107 17.6972 54.3393C17.8331 53.6678 18.1658 53.052 18.653 52.5704C19.1352 52.0861 19.7505 51.7562 20.4207 51.6225C21.0909 51.4888 21.7857 51.5574 22.4168 51.8196C23.0479 52.0817 23.5868 52.5256 23.965 53.0947C24.3433 53.6639 24.5438 54.3327 24.541 55.016C24.5415 55.4694 24.4526 55.9184 24.2795 56.3375C24.1063 56.7565 23.8523 57.1373 23.5319 57.458C23.2115 57.7788 22.831 58.0333 22.4121 58.2069C21.9933 58.3805 21.5444 58.4699 21.091 58.4699V58.4737Z" fill="white"/>
</g>
<defs>
<clipPath id="clip0_26_849">
<rect width="69" height="69" fill="white"/>
</clipPath>
</defs>
</svg>
