<svg width="30" height="32" viewBox="0 0 30 32" fill="none" xmlns="http://www.w3.org/2000/svg">
<path d="M22.4531 26.1846C22.9907 26.1846 23.4062 26.6882 23.4062 27.2178C23.4061 27.7472 22.9906 28.25 22.4531 28.25H7.54688C7.00942 28.25 6.59395 27.7472 6.59375 27.2178C6.59375 26.6882 7.00929 26.1846 7.54688 26.1846H22.4531ZM25.5469 3.75C27.1156 3.75 28.3748 5.19189 28.375 6.86914V20.6953C28.375 22.379 27.1101 23.7627 25.5469 23.7627H4.45312C2.88432 23.7627 1.62504 22.321 1.625 20.6436V6.86914C1.62521 5.13664 2.88722 3.75 4.45312 3.75H25.5469ZM4.45312 5.81543C3.95957 5.81543 3.53145 6.25115 3.53125 6.86914V20.6953C3.53125 21.3135 3.95946 21.75 4.45312 21.75H25.5469C26.0405 21.75 26.4688 21.3135 26.4688 20.6953V6.86914C26.4686 6.25115 26.0404 5.81543 25.5469 5.81543H4.45312Z" fill="#166AE0" stroke="#166AE0" stroke-width="0.5"/>
<path d="M9.95001 9.26331C10.1969 9.26331 10.4499 9.50916 10.45 9.81311V17.6002C10.45 17.7879 10.3919 17.9234 10.3113 18.0094C10.2321 18.0938 10.113 18.15 9.95001 18.15C9.7031 18.15 9.45015 17.9041 9.45001 17.6002V9.81311C9.45012 9.50916 9.70309 9.26331 9.95001 9.26331Z" fill="#166AE0" stroke="#166AE0" stroke-width="0.5"/>
<path d="M19.7625 9.26331C20.0094 9.26331 20.2624 9.50916 20.2625 9.81311V17.6002C20.2624 17.9463 20.0202 18.15 19.7625 18.15C19.5156 18.15 19.2626 17.9041 19.2625 17.6002V9.81311C19.2626 9.50916 19.5156 9.26331 19.7625 9.26331Z" fill="#166AE0" stroke="#166AE0" stroke-width="0.5"/>
<path d="M18.5625 11.0767H20.9629C21.2097 11.0769 21.4628 11.3227 21.4629 11.6265C21.4629 11.9303 21.2097 12.176 20.9629 12.1763H18.5625C18.3155 12.1763 18.0625 11.9305 18.0625 11.6265C18.0626 11.3225 18.3156 11.0767 18.5625 11.0767Z" fill="#166AE0" stroke="#166AE0" stroke-width="0.5"/>
</svg>
