<svg width="16" height="16" viewBox="0 0 16 16" fill="none" xmlns="http://www.w3.org/2000/svg">
<path d="M8.00031 0C9.42726 0 10.8013 0.375074 12.01 1.07611C12.1381 1.15046 12.2314 1.27264 12.2694 1.41577C12.3074 1.55891 12.2869 1.71127 12.2126 1.83933C12.1382 1.9674 12.016 2.06068 11.8729 2.09867C11.7298 2.13665 11.5774 2.11621 11.4493 2.04186C10.4017 1.43377 9.21161 1.11439 8.00031 1.11629C4.19854 1.11629 1.11629 4.19854 1.11629 8.00031C1.11629 11.8021 4.19854 14.8837 8.00031 14.8837C11.8021 14.8837 14.8837 11.8021 14.8837 8.00031C14.8837 6.77941 14.566 5.60571 13.9709 4.5717C13.9343 4.50816 13.9106 4.43804 13.9012 4.36535C13.8917 4.29266 13.8966 4.21881 13.9157 4.14803C13.9542 4.00507 14.048 3.88328 14.1763 3.80943C14.3046 3.73559 14.457 3.71574 14.6 3.75426C14.6707 3.77333 14.7371 3.80616 14.7952 3.85087C14.8533 3.89558 14.902 3.95129 14.9386 4.01483C15.6361 5.22709 16.0022 6.60167 16 8.00031C16 12.4183 12.4183 16 8.00031 16C3.58171 16 0 12.4183 0 8.00031C0 3.58171 3.58171 0 8.00031 0Z" fill="#0377F9"/>
<path d="M10.7624 4.51947L10.2094 4.73252L9.7718 4.90666L9.35717 5.07506L8.7818 5.31682L8.42906 5.46991L8.10182 5.61854L7.80202 5.76079L7.52964 5.89666C7.09971 6.11928 6.7897 6.31702 6.61747 6.48925C6.24092 6.87443 6.03143 7.39256 6.03446 7.93121C6.03748 8.46986 6.25277 8.9856 6.63362 9.36654C7.01447 9.74747 7.53016 9.96287 8.06881 9.96602C8.60747 9.96916 9.12564 9.75978 9.5109 9.38332C9.70418 9.19068 9.91596 8.84431 10.1654 8.34357L10.3197 8.02463L10.4843 7.66869L10.6559 7.27958C10.8013 6.9447 10.9481 6.59195 11.0916 6.23473L11.2982 5.71358L11.4807 5.23772C11.5182 5.13743 11.526 5.02847 11.5033 4.92384C11.4806 4.81921 11.4283 4.72332 11.3525 4.64761C11.2768 4.5719 11.1809 4.51956 11.0763 4.49684C10.9717 4.47412 10.8627 4.48198 10.7624 4.51947ZM9.9689 6.03061L9.91532 6.16393C9.82091 6.39357 9.72587 6.61874 9.63146 6.83562L9.46689 7.20942L9.32464 7.51879L9.20408 7.7682L9.09182 7.99146L8.98912 8.1841L8.89662 8.34548C8.84739 8.4344 8.7888 8.5178 8.72184 8.59426C8.54734 8.76868 8.31069 8.86663 8.06396 8.86658C7.81723 8.86652 7.58063 8.76845 7.40621 8.59394C7.23179 8.41943 7.13384 8.18279 7.1339 7.93606C7.13396 7.68933 7.23203 7.45273 7.40653 7.27831C7.4346 7.25024 7.47542 7.21835 7.52773 7.18199L7.64893 7.1048C7.67125 7.09077 7.69549 7.07674 7.72037 7.0627L7.8843 6.97149L8.07567 6.87262L8.40801 6.71059L8.65742 6.5945L9.06949 6.41015L9.3661 6.28258L9.83941 6.08419L9.9689 6.03061Z" fill="#0377F9"/>
</svg>
