<svg width="16" height="16" viewBox="0 0 16 16" fill="none" xmlns="http://www.w3.org/2000/svg">
<path d="M12.5 8.5H10.9L10 4.9C9.9 4.7 9.7 4.5 9.5 4.5C9.3 4.5 9.1 4.6 9 4.8L7.6 9.2L7 6.9C6.9 6.7 6.7 6.5 6.5 6.5C6.3 6.5 6.1 6.6 6 6.8L5.2 8.5H3.5C3.2 8.5 3 8.8 3 9C3 9.3 3.2 9.5 3.5 9.5H5.5C5.7 9.5 5.9 9.4 5.9 9.2L6.3 8.4L7 11.1C7.1 11.3 7.2 11.5 7.5 11.5C7.7 11.5 7.9 11.4 8 11.2L9.4 6.8L10 9.1C10.1 9.3 10.3 9.5 10.5 9.5H12.5C12.8 9.5 13 9.2 13 9C13 8.7 12.8 8.5 12.5 8.5Z" fill="#00FFD2"/>
<path d="M8 16C3.6 16 0 12.4 0 8C0 3.6 3.6 0 8 0C9.7 0 11.3 0.5 12.7 1.5C12.9 1.7 13 2 12.8 2.2C12.6 2.4 12.3 2.5 12.1 2.3C10.9 1.4 9.5 1 8 1C4.1 1 1 4.1 1 8C1 11.9 4.1 15 8 15C11.9 15 15 11.9 15 8C15 6.8 14.7 5.6 14.1 4.5C14 4.3 14 4 14.3 3.8C14.5 3.7 14.8 3.7 15 4C15.6 5.2 16 6.6 16 8C16 12.4 12.4 16 8 16Z" fill="#00FFD2"/>
</svg>
