<svg width="30" height="30" viewBox="0 0 30 30" fill="none" xmlns="http://www.w3.org/2000/svg">
<path d="M15.0059 6.43066L4.68164 16.248V25.0459C4.68164 26.6484 5.98535 27.9492 7.58496 27.9492H11.9941V21.252C11.9941 19.5879 13.3418 18.2402 15.0059 18.2402C16.6699 18.2402 18.0176 19.5879 18.0176 21.252V27.9521H22.4268C24.0264 27.9521 25.3301 26.6484 25.3301 25.0488V16.2305L15.0059 6.43066Z" fill="#ACF225"/>
<path d="M27.9375 14.168L15.7061 2.10938C15.3135 1.72266 14.6865 1.72266 14.294 2.10938L4.98048 11.2998L2.07131 14.168C1.6758 14.5576 1.67287 15.1934 2.06252 15.5889C2.39357 15.9229 2.89162 15.9609 3.27834 15.7324L15.0029 4.5791L26.8037 15.7822C26.9385 15.8467 27.082 15.8877 27.2315 15.8877C27.4922 15.8877 27.75 15.7881 27.9463 15.5889C28.336 15.1963 28.333 14.5605 27.9375 14.168Z" fill="#ACF225"/>
</svg>
