<svg width="24" height="24" viewBox="0 0 24 24" fill="none" xmlns="http://www.w3.org/2000/svg">
<path d="M12 10.6667C14.9455 10.6667 17.3334 8.27886 17.3334 5.33333C17.3334 2.38782 14.9455 0 12 0C9.0545 0 6.66669 2.38782 6.66669 5.33333C6.66669 8.27886 9.0545 10.6667 12 10.6667Z" fill="#666666"/>
<path d="M0 23.2001V24.0001H24V23.2001C24 20.2131 24 18.7197 23.4187 17.5788C22.9074 16.5753 22.0915 15.7593 21.0879 15.248C19.9471 14.6667 18.4536 14.6667 15.4667 14.6667H8.53333C5.5464 14.6667 4.05293 14.6667 2.91207 15.248C1.90852 15.7593 1.09262 16.5753 0.5813 17.5788C1.19209e-07 18.7197 0 20.2131 0 23.2001Z" fill="#666666"/>
</svg>
