<svg width="27" height="27" viewBox="0 0 27 27" fill="none" xmlns="http://www.w3.org/2000/svg">
<path d="M14.4449 21.8147H17.6078C17.7849 21.8147 17.9285 21.6711 17.9285 21.494V21.483L17.8313 18.6471C17.8256 18.4828 17.8621 18.3198 17.9374 18.1736C18.0127 18.0275 18.1242 17.9031 18.2613 17.8123C20.6679 16.2171 22.1433 13.5288 22.1433 10.588C22.1433 5.80483 18.2658 1.92732 13.4829 1.92732C8.69969 1.92732 4.82218 5.80483 4.82218 10.588C4.82218 13.5293 6.29861 16.2184 8.70575 17.8131C8.83361 17.8977 8.9394 18.0117 9.0143 18.1455C9.0892 18.2793 9.13103 18.4291 9.13632 18.5823L9.23672 21.5046C9.24252 21.6775 9.38428 21.8145 9.55741 21.8145H12.5205V15.3L10.2159 12.8515C9.85174 12.4644 9.87019 11.8555 10.2573 11.4911C10.6444 11.1269 11.2533 11.1453 11.6178 11.5324L13.5232 13.5572L15.709 11.4924C16.0955 11.1274 16.7045 11.1448 17.0695 11.5311C17.4344 11.9174 17.417 12.5264 17.0307 12.8916L14.4452 15.3333V21.8147H14.4449ZM24.0677 10.5883C24.0703 13.9477 22.4761 17.1085 19.7728 19.1027L19.8521 21.4171C19.8624 21.7183 19.812 22.0185 19.7039 22.2998C19.5957 22.5811 19.4321 22.8377 19.2227 23.0544C19.0132 23.2711 18.7623 23.4434 18.4849 23.5611C18.2075 23.6788 17.9092 23.7394 17.6078 23.7394H9.55662C8.34659 23.7397 7.35422 22.7805 7.31259 21.571L7.22879 19.1293C4.50439 17.137 2.89489 13.9635 2.89753 10.5883C2.89753 4.74211 7.63697 0.00292969 13.4829 0.00292969C19.3285 0.00292969 24.0677 4.74211 24.0677 10.5883ZM10.5959 26.9471C10.0644 26.9471 9.63356 26.5162 9.63356 25.9847C9.63356 25.4535 10.0644 25.0227 10.5959 25.0227H16.3696C16.9011 25.0227 17.3319 25.4535 17.3319 25.9847C17.3319 26.5162 16.9011 26.9471 16.3696 26.9471H10.5959Z" fill="#F35B89"/>
</svg>
